<svg width="27" height="33" viewBox="0 0 27 33" fill="none" xmlns="http://www.w3.org/2000/svg">
<path d="M1.43887 33V17.16L0.973354 16.7062C0.663009 16.3762 0.423198 16.005 0.253919 15.5925C0.0846397 15.18 0 14.7675 0 14.355C0 13.915 0.0846397 13.4959 0.253919 13.0977C0.423198 12.6984 0.663009 12.3475 0.973354 12.045L6.51724 6.6H13.2884L20.0596 0L23.5298 3.3825C24.7147 4.51 25.5893 5.7816 26.1536 7.1973C26.7179 8.6141 27 10.065 27 11.55C27 13.035 26.7179 14.4787 26.1536 15.8812C25.5893 17.2837 24.7147 18.5625 23.5298 19.7175L20.0596 23.1V33H1.43887ZM4.82445 29.7H16.674V21.7388L21.1176 17.4075C21.9357 16.61 22.5564 15.6953 22.9796 14.6635C23.4028 13.6328 23.6144 12.595 23.6144 11.55C23.6144 10.505 23.4028 9.47375 22.9796 8.45625C22.5564 7.43875 21.9357 6.53125 21.1176 5.73375L20.0596 4.66125L14.685 9.9H7.91379L6.94044 10.8487L9.77586 13.6125C10.594 14.41 11.2147 15.3175 11.6379 16.335C12.0611 17.3525 12.2727 18.3837 12.2727 19.4287C12.2727 20.4737 12.0611 21.5121 11.6379 22.5439C11.2147 23.5746 10.594 24.4888 9.77586 25.2863L4.82445 20.46V29.7Z" fill="current"/>
</svg>
