<svg width="29" height="30" viewBox="0 0 29 30" fill="none" xmlns="http://www.w3.org/2000/svg">
<path d="M27.6818 6.23611H22.5163V2.28156C22.5163 1.55656 21.9203 0.963379 21.1918 0.963379C20.4633 0.963379 19.8673 1.55656 19.8673 2.28156V6.23611H14.7018C13.9204 6.23611 13.3111 6.90838 13.3773 7.68611L13.5363 9.28111C18.4104 10.4016 22.5163 13.842 22.5163 19.4179L22.5428 29.9634H24.7944C25.907 29.9634 26.8209 29.1066 26.9533 28.0257L28.993 7.68611C29.0725 6.90838 28.4632 6.23611 27.6818 6.23611ZM18.5428 27.327H1.32449C0.596019 27.327 0 27.9202 0 28.6452C0 29.3702 0.596019 29.9634 1.32449 29.9634H18.5428C19.2713 29.9634 19.8673 29.3702 19.8673 28.6452C19.8673 27.9202 19.2713 27.327 18.5428 27.327ZM1.45694 19.4179H18.4104C19.2316 19.4179 19.8806 18.6797 19.7216 17.8888C18.8607 13.6311 14.3972 11.4957 9.93365 11.4957C5.47013 11.4957 1.01986 13.6311 0.145694 17.8888C-0.0132449 18.6797 0.648999 19.4179 1.45694 19.4179ZM18.5428 22.0543H1.32449C0.596019 22.0543 0 22.6475 0 23.3725C0 24.0975 0.596019 24.6907 1.32449 24.6907H18.5428C19.2713 24.6907 19.8673 24.0975 19.8673 23.3725C19.8673 22.6475 19.2713 22.0543 18.5428 22.0543Z" fill="current"/>
</svg>
