<svg width="31" height="32" viewBox="0 0 31 32" fill="none" xmlns="http://www.w3.org/2000/svg">
<path d="M28.9049 11.8277L26.7322 9.58629L27.8961 8.34553L22.9299 3.2224L21.7272 4.42313L19.5156 2.14174L20.6796 0.900977C21.2745 0.287268 22.0117 -0.0129157 22.8911 0.000425792C23.7705 0.0137673 24.5077 0.327292 25.1026 0.941001L30.1076 6.10416C30.7025 6.71787 31 7.47166 31 8.36554C31 9.25942 30.7025 10.0132 30.1076 10.6269L28.9049 11.8277ZM10.2816 31.0794C9.68669 31.6931 8.95599 32 8.08949 32C7.22299 32 6.49228 31.6931 5.89737 31.0794L0.892365 25.9163C0.297455 25.3026 0 24.5488 0 23.6549C0 22.761 0.297455 22.0072 0.892365 21.3935L2.05632 20.1928L4.26783 22.4742L3.06508 23.6749L8.07009 28.8381L9.23404 27.5973L11.4456 29.8787L10.2816 31.0794ZM25.6846 17.6312L27.8961 15.3498L16.1402 3.2224L13.9287 5.50379L25.6846 17.6312ZM14.821 28.8381L17.0325 26.5166L5.31539 14.4293L3.06508 16.7106L14.821 28.8381ZM14.5882 19.4723L18.8561 15.1097L16.373 12.5481L12.1439 16.9508L14.5882 19.4723ZM17.0325 31.0794C16.4376 31.6931 15.7005 32 14.821 32C13.9416 32 13.2044 31.6931 12.6095 31.0794L0.892365 18.992C0.297455 18.3783 0 17.6179 0 16.7106C0 15.8034 0.297455 15.043 0.892365 14.4293L3.10388 12.1479C3.69879 11.5341 4.4295 11.2273 5.296 11.2273C6.1625 11.2273 6.8932 11.5341 7.48811 12.1479L9.93242 14.6694L14.2003 10.2667L11.7559 7.78519C11.161 7.17148 10.8636 6.41101 10.8636 5.50379C10.8636 4.59657 11.161 3.83611 11.7559 3.2224L13.9675 0.941001C14.5624 0.327292 15.2931 0.020438 16.1596 0.020438C17.0261 0.020438 17.7568 0.327292 18.3517 0.941001L30.1076 13.0684C30.7025 13.6821 31 14.4359 31 15.3298C31 16.2237 30.7025 16.9775 30.1076 17.5912L27.8961 19.8726C27.3012 20.4863 26.564 20.7931 25.6846 20.7931C24.8052 20.7931 24.068 20.4863 23.4731 19.8726L21.0676 17.351L16.7998 21.7537L19.2441 24.2753C19.839 24.889 20.1364 25.6428 20.1364 26.5367C20.1364 27.4305 19.839 28.1843 19.2441 28.798L17.0325 31.0794Z" fill="current"/>
</svg>
