<svg width="30" height="30" viewBox="0 0 30 30" fill="none" xmlns="http://www.w3.org/2000/svg">
<mask id="mask0_83_15" style="mask-type:luminance" maskUnits="userSpaceOnUse" x="0" y="0" width="30" height="30">
<path d="M0 0.0366211H29.9632V29.9998H0V0.0366211Z" fill="white"/>
</mask>
<g mask="url(#mask0_83_15)">
<path d="M29.3986 13.6839L16.316 0.602279C16.1368 0.422951 15.924 0.280694 15.6898 0.183636C15.4556 0.0865774 15.2045 0.0366211 14.951 0.0366211C14.6975 0.0366211 14.4465 0.0865774 14.2122 0.183636C13.978 0.280694 13.7652 0.422951 13.586 0.602279L10.8704 3.31924L14.3158 6.76467C14.7209 6.6271 15.1564 6.60563 15.573 6.70267C15.9896 6.79971 16.3708 7.0114 16.6734 7.3138C16.9777 7.61839 17.1901 8.00247 17.2863 8.4221C17.3826 8.84174 17.3588 9.27999 17.2176 9.68674L20.5395 13.0076C20.9463 12.8663 21.3848 12.8425 21.8045 12.9389C22.2243 13.0354 22.6084 13.2481 22.9128 13.5528C23.126 13.766 23.2951 14.0191 23.4105 14.2976C23.5259 14.5762 23.5853 14.8747 23.5853 15.1762C23.5853 15.4778 23.5259 15.7763 23.4105 16.0549C23.2951 16.3334 23.126 16.5865 22.9128 16.7997C22.4817 17.2303 21.8973 17.4722 21.288 17.4722C20.6787 17.4722 20.0944 17.2303 19.6633 16.7997C19.3431 16.4789 19.1249 16.0706 19.0362 15.6261C18.9476 15.1817 18.9924 14.7209 19.165 14.3018L16.0672 11.205V19.3562C16.3942 19.5177 16.678 19.7548 16.8951 20.0478C17.1122 20.3409 17.2563 20.6814 17.3156 21.0412C17.3749 21.4011 17.3476 21.7699 17.236 22.1171C17.1243 22.4642 16.9316 22.7798 16.6737 23.0377C16.4606 23.2509 16.2075 23.4201 15.9289 23.5355C15.6504 23.6509 15.3518 23.7102 15.0503 23.7102C14.7488 23.7102 14.4503 23.6509 14.1717 23.5355C13.8932 23.4201 13.6401 23.2509 13.4269 23.0377C13.2136 22.8245 13.0444 22.5714 12.929 22.2928C12.8136 22.0143 12.7542 21.7157 12.7542 21.4141C12.7542 21.1126 12.8136 20.814 12.929 20.5354C13.0444 20.2568 13.2136 20.0037 13.4269 19.7905C13.6417 19.5753 13.8971 19.4047 14.1782 19.2887V11.0625C13.8982 10.9472 13.6438 10.7777 13.4295 10.5637C13.2152 10.3498 13.0454 10.0956 12.9296 9.81582C12.8139 9.53603 12.7545 9.23612 12.755 8.93332C12.7555 8.63053 12.8159 8.33082 12.9325 8.05141L9.53537 4.65358L0.564062 13.6226C0.202549 13.9848 -0.000488281 14.4757 -0.000488281 14.9874C-0.000488281 15.4992 0.202549 15.9901 0.564062 16.3523L13.6473 29.4355C14.0095 29.797 14.5003 29.9999 15.012 29.9999C15.5237 29.9999 16.0145 29.797 16.3767 29.4355L29.3986 16.4136C29.7601 16.0514 29.9632 15.5605 29.9632 15.0487C29.9632 14.537 29.7601 14.0461 29.3986 13.6839Z" fill="currnet"/>
</g>
</svg>
