<svg width="32" height="34" viewBox="0 0 32 34" fill="none" xmlns="http://www.w3.org/2000/svg">
<path d="M10 34C7.21481 34 4.85185 32.969 2.91111 30.9069C0.97037 28.8449 0 26.3343 0 23.375C0 21.9583 0.251852 20.6046 0.755556 19.3139C1.25926 18.0231 1.98519 16.8741 2.93333 15.8667L14.9333 3.11667C15.8815 2.10926 16.963 1.33796 18.1778 0.802778C19.3926 0.267593 20.6667 0 22 0C24.7852 0 27.1481 1.03102 29.0889 3.09306C31.0296 5.15509 32 7.66574 32 10.625C32 12.0417 31.7481 13.3954 31.2444 14.6861C30.7407 15.9769 30.0148 17.1259 29.0667 18.1333L17.0667 30.8833C16.1185 31.8907 15.037 32.662 13.8222 33.1972C12.6074 33.7324 11.3333 34 10 34ZM21.8222 20.4944L26.5778 15.4889C27.1704 14.8593 27.6296 14.1194 27.9556 13.2694C28.2815 12.4194 28.4444 11.538 28.4444 10.625C28.4444 8.73611 27.8148 7.12269 26.5556 5.78472C25.2963 4.44676 23.7778 3.77778 22 3.77778C21.1407 3.77778 20.3111 3.95093 19.5111 4.29722C18.7111 4.64352 18.0148 5.13148 17.4222 5.76111L12.7111 10.8139L21.8222 20.4944ZM10 30.2222C10.8593 30.2222 11.6889 30.0491 12.4889 29.7028C13.2889 29.3565 13.9852 28.8685 14.5778 28.2389L19.2889 23.1861L10.1778 13.5056L5.42222 18.5111C4.82963 19.1407 4.37037 19.8806 4.04444 20.7306C3.71852 21.5806 3.55556 22.462 3.55556 23.375C3.55556 25.2639 4.18519 26.8773 5.44444 28.2153C6.7037 29.5532 8.22222 30.2222 10 30.2222Z" fill="current"/>
</svg>
