<svg width="30" height="27" viewBox="0 0 30 27" fill="none" xmlns="http://www.w3.org/2000/svg">
<path d="M22.5102 0C19.8499 0 16.985 0.648844 15.0068 2.43316C13.0286 0.648844 10.1637 0 7.50341 0C5.52524 0 3.42428 0.356864 1.66439 1.28147C0.668486 1.81676 0 2.96846 0 4.28237V22.5798C0 24.6885 1.66439 26.2457 3.38336 25.7266C4.72033 25.3211 6.13915 25.1427 7.50341 25.1427C9.63165 25.1427 11.8963 25.5644 13.7244 26.635C14.543 27.1217 15.4707 27.1217 16.2756 26.635C18.1037 25.5482 20.3683 25.1427 22.4966 25.1427C23.8608 25.1427 25.2797 25.3211 26.6166 25.7266C28.3356 26.2619 30 24.7047 30 22.5798V4.28237C30 2.96846 29.3315 1.81676 28.3356 1.28147C26.5894 0.356864 24.4884 0 22.5102 0ZM27.2851 20.6494C27.2851 21.6714 26.4939 22.4175 25.648 22.2391C24.6248 22.012 23.5607 21.9147 22.5102 21.9147C20.191 21.9147 16.8486 22.9691 15.0068 24.3479V5.67738C16.8486 4.29859 20.191 3.24422 22.5102 3.24422C23.7653 3.24422 25.0068 3.39021 26.1937 3.69841C26.8213 3.86062 27.2851 4.52568 27.2851 5.28807V20.6494Z" fill="current"/>
</svg>
