<svg width="21" height="36" viewBox="0 0 21 36" fill="none" xmlns="http://www.w3.org/2000/svg">
<path d="M12.1154 6.69767C13.8923 6.69767 15.3462 5.1907 15.3462 3.34884C15.3462 1.50698 13.8923 0 12.1154 0C10.3385 0 8.88462 1.50698 8.88462 3.34884C8.88462 5.1907 10.3385 6.69767 12.1154 6.69767ZM6.13846 12.3907L2.00308 34.0074C1.79308 35.0288 2.56846 36 3.58615 36H3.71538C4.47462 36 5.12077 35.4642 5.29846 34.694L7.91538 22.6047L11.3077 25.9535V34.3256C11.3077 35.2465 12.0346 36 12.9231 36C13.8115 36 14.5385 35.2465 14.5385 34.3256V24.8819C14.5385 23.9609 14.1831 23.0902 13.5369 22.454L11.1462 20.093L12.1154 15.0698C13.8438 17.146 16.3477 18.6363 19.1585 19.1051C20.1277 19.2558 21 18.4521 21 17.4307C21 16.6102 20.4185 15.9237 19.6269 15.7898C17.1715 15.3712 15.1362 13.8642 14.0538 11.8884L12.4385 9.2093C11.5338 7.71907 9.72462 7.11628 8.15769 7.80279L1.97077 10.5153C0.775384 11.0512 0 12.2567 0 13.613V17.5814C0 18.5023 0.726923 19.2558 1.61538 19.2558C2.50385 19.2558 3.23077 18.5023 3.23077 17.5814V13.5628L6.13846 12.3907Z" fill="current"/>
</svg>
