<svg width="27" height="33" viewBox="0 0 27 33" fill="none" xmlns="http://www.w3.org/2000/svg">
<path d="M12.1321 11.55C10.7388 11.55 9.37093 11.7631 8.02835 12.1894C6.68577 12.6156 5.44451 13.255 4.30458 14.1075L5.90048 29.7H21.0995L22.7714 13.2H21.7455C20.7829 13.2 19.9026 13.1244 19.1046 12.9731C18.3067 12.8219 17.2238 12.5263 15.8559 12.0863C15.2732 11.8938 14.6653 11.7563 14.032 11.6738C13.3987 11.5913 12.7654 11.55 12.1321 11.55ZM3.20265 3.3L3.92461 10.5188C5.21653 9.77625 6.55277 9.2125 7.93335 8.8275C9.31393 8.4425 10.7262 8.25 12.1701 8.25C12.93 8.25 13.6837 8.305 14.4309 8.415C15.1782 8.525 15.9192 8.69 16.6538 8.91C17.9204 9.295 18.8893 9.55625 19.5606 9.69375C20.2319 9.83125 20.9475 9.9 21.7075 9.9H23.1134L23.7593 3.3H3.20265ZM12.1321 29.7H21.0995H5.90048H12.1321ZM5.90048 33C5.1152 33 4.43124 32.725 3.84861 32.175C3.26598 31.625 2.93667 30.9238 2.86068 30.0713L0.0108565 1.815C-0.039807 1.32 0.0868516 0.89375 0.390832 0.53625C0.694813 0.17875 1.07479 0 1.53076 0H25.4692C25.9252 0 26.3052 0.17875 26.6092 0.53625C26.9131 0.89375 27.0398 1.32 26.9891 1.815L24.1393 30.0713C24.0633 30.9238 23.734 31.625 23.1514 32.175C22.5688 32.725 21.8848 33 21.0995 33H5.90048Z" fill="current"/>
</svg>
