<svg width="26" height="26" viewBox="0 0 26 26" fill="none" xmlns="http://www.w3.org/2000/svg">
<path d="M23.1111 2.6H21.6667V0H18.7778V2.6H7.22222V0H4.33333V2.6H2.88889C1.28556 2.6 0.0144444 3.77 0.0144444 5.2L0 23.4C0 24.83 1.28556 26 2.88889 26H23.1111C24.7 26 26 24.83 26 23.4V5.2C26 3.77 24.7 2.6 23.1111 2.6ZM23.1111 23.4H2.88889V10.4H23.1111V23.4ZM8.66667 15.6H5.77778V13H8.66667V15.6ZM14.4444 15.6H11.5556V13H14.4444V15.6ZM20.2222 15.6H17.3333V13H20.2222V15.6ZM8.66667 20.8H5.77778V18.2H8.66667V20.8ZM14.4444 20.8H11.5556V18.2H14.4444V20.8ZM20.2222 20.8H17.3333V18.2H20.2222V20.8Z" fill="#878787"/>
</svg>
