<svg width="26" height="26" viewBox="0 0 26 26" fill="none" xmlns="http://www.w3.org/2000/svg">
<path d="M15.5012 26H10.4988C10.1653 26 9.87632 25.8917 9.63176 25.675C9.3872 25.4583 9.24269 25.1875 9.19823 24.8625L8.79804 21.84C8.50902 21.7317 8.23689 21.6017 7.98166 21.45C7.72554 21.2983 7.4752 21.1358 7.23064 20.9625L4.32929 22.1325C4.01803 22.2408 3.70678 22.2517 3.39552 22.165C3.08427 22.0783 2.83971 21.8942 2.66185 21.6125L0.19403 17.42C0.0161691 17.1383 -0.0394123 16.835 0.0272854 16.51C0.0939832 16.185 0.260728 15.925 0.527519 15.73L3.02868 13.8775C3.00645 13.7258 2.99534 13.5794 2.99534 13.4381V12.5606C2.99534 12.4202 3.00645 12.2742 3.02868 12.1225L0.527519 10.27C0.260728 10.075 0.0939832 9.815 0.0272854 9.49C-0.0394123 9.165 0.0161691 8.86167 0.19403 8.58L2.66185 4.3875C2.81747 4.08417 3.05625 3.89437 3.37818 3.8181C3.701 3.7427 4.01803 3.75917 4.32929 3.8675L7.23064 5.0375C7.4752 4.86417 7.73088 4.70167 7.99767 4.55C8.26446 4.39833 8.53125 4.26833 8.79804 4.16L9.19823 1.1375C9.24269 0.8125 9.3872 0.541667 9.63176 0.325C9.87632 0.108333 10.1653 0 10.4988 0H15.5012C15.8347 0 16.1237 0.108333 16.3682 0.325C16.6128 0.541667 16.7573 0.8125 16.8018 1.1375L17.202 4.16C17.491 4.26833 17.7636 4.39833 18.0197 4.55C18.2749 4.70167 18.5248 4.86417 18.7694 5.0375L21.6707 3.8675C21.982 3.75917 22.2932 3.74833 22.6045 3.835C22.9157 3.92167 23.1603 4.10583 23.3382 4.3875L25.806 8.58C25.9838 8.86167 26.0394 9.165 25.9727 9.49C25.906 9.815 25.7393 10.075 25.4725 10.27L22.9713 12.1225C22.9935 12.2742 23.0047 12.4202 23.0047 12.5606V13.4381C23.0047 13.5794 22.9824 13.7258 22.938 13.8775L25.4391 15.73C25.7059 15.925 25.8727 16.185 25.9394 16.51C26.0061 16.835 25.9505 17.1383 25.7726 17.42L23.3048 21.58C23.1269 21.8617 22.877 22.0515 22.5551 22.1494C22.2323 22.2465 21.9153 22.2408 21.604 22.1325L18.7694 20.9625C18.5248 21.1358 18.2691 21.2983 18.0023 21.45C17.7355 21.6017 17.4687 21.7317 17.202 21.84L16.8018 24.8625C16.7573 25.1875 16.6128 25.4583 16.3682 25.675C16.1237 25.8917 15.8347 26 15.5012 26ZM13.0667 17.55C14.3562 17.55 15.4567 17.1058 16.3682 16.2175C17.2798 15.3292 17.7355 14.2567 17.7355 13C17.7355 11.7433 17.2798 10.6708 16.3682 9.7825C15.4567 8.89417 14.3562 8.45 13.0667 8.45C11.755 8.45 10.6487 8.89417 9.74782 9.7825C8.84784 10.6708 8.39785 11.7433 8.39785 13C8.39785 14.2567 8.84784 15.3292 9.74782 16.2175C10.6487 17.1058 11.755 17.55 13.0667 17.55ZM13.0667 14.95C12.5109 14.95 12.0387 14.7602 11.65 14.3806C11.2605 14.0019 11.0658 13.5417 11.0658 13C11.0658 12.4583 11.2605 11.9981 11.65 11.6194C12.0387 11.2398 12.5109 11.05 13.0667 11.05C13.6225 11.05 14.0952 11.2398 14.4847 11.6194C14.8733 11.9981 15.0676 12.4583 15.0676 13C15.0676 13.5417 14.8733 14.0019 14.4847 14.3806C14.0952 14.7602 13.6225 14.95 13.0667 14.95ZM11.666 23.4H14.3006L14.7675 19.955C15.4567 19.7817 16.0961 19.5269 16.6857 19.1906C17.2744 18.8552 17.8134 18.4492 18.3025 17.9725L21.604 19.305L22.9046 17.095L20.0366 14.9825C20.1478 14.6792 20.2256 14.3594 20.2701 14.0231C20.3145 13.6877 20.3368 13.3467 20.3368 13C20.3368 12.6533 20.3145 12.3119 20.2701 11.9756C20.2256 11.6402 20.1478 11.3208 20.0366 11.0175L22.9046 8.905L21.604 6.695L18.3025 8.06C17.8134 7.56167 17.2744 7.14437 16.6857 6.8081C16.0961 6.4727 15.4567 6.21833 14.7675 6.045L14.334 2.6H11.6994L11.2325 6.045C10.5433 6.21833 9.90433 6.4727 9.31561 6.8081C8.72601 7.14437 8.18664 7.55083 7.69753 8.0275L4.39599 6.695L3.09538 8.905L5.96339 10.985C5.85222 11.31 5.77441 11.635 5.72994 11.96C5.68548 12.285 5.66325 12.6317 5.66325 13C5.66325 13.3467 5.68548 13.6825 5.72994 14.0075C5.77441 14.3325 5.85222 14.6575 5.96339 14.9825L3.09538 17.095L4.39599 19.305L7.69753 17.94C8.18664 18.4383 8.72601 18.8552 9.31561 19.1906C9.90433 19.5269 10.5433 19.7817 11.2325 19.955L11.666 23.4Z" fill="#878787"/>
</svg>
