<svg width="27" height="22" viewBox="0 0 27 22" fill="none" xmlns="http://www.w3.org/2000/svg">
<path d="M9.045 15.5375C9.2925 15.7896 9.6075 15.9156 9.99 15.9156C10.3725 15.9156 10.6875 15.7896 10.935 15.5375L13.5 12.925L16.0988 15.5719C16.3463 15.824 16.65 15.95 17.01 15.95C17.37 15.95 17.685 15.8125 17.955 15.5375C18.2025 15.2854 18.3263 14.9646 18.3263 14.575C18.3263 14.1854 18.2025 13.8646 17.955 13.6125L15.39 11L17.9888 8.35312C18.2363 8.10104 18.36 7.79167 18.36 7.425C18.36 7.05833 18.225 6.7375 17.955 6.4625C17.7075 6.21042 17.3925 6.08438 17.01 6.08438C16.6275 6.08438 16.3125 6.21042 16.065 6.4625L13.5 9.075L10.9012 6.42813C10.6537 6.17604 10.35 6.05 9.99 6.05C9.63 6.05 9.315 6.1875 9.045 6.4625C8.7975 6.71458 8.67375 7.03542 8.67375 7.425C8.67375 7.81458 8.7975 8.13542 9.045 8.3875L11.61 11L9.01125 13.6469C8.76375 13.899 8.64 14.2083 8.64 14.575C8.64 14.9417 8.775 15.2625 9.045 15.5375ZM2.7 22C1.9575 22 1.3221 21.731 0.7938 21.1929C0.2646 20.6539 0 20.0063 0 19.25V2.75C0 1.99375 0.2646 1.34658 0.7938 0.8085C1.3221 0.2695 1.9575 0 2.7 0H24.3C25.0425 0 25.6784 0.2695 26.2076 0.8085C26.7359 1.34658 27 1.99375 27 2.75V19.25C27 20.0063 26.7359 20.6539 26.2076 21.1929C25.6784 21.731 25.0425 22 24.3 22H2.7ZM2.7 19.25H24.3V2.75H2.7V19.25Z" fill="#878787"/>
</svg>
