<svg width="26" height="26" viewBox="0 0 26 26" fill="none" xmlns="http://www.w3.org/2000/svg">
<path d="M4.875 26C3.98125 26 3.21642 25.7174 2.5805 25.1521C1.9435 24.5859 1.625 23.9056 1.625 23.1111V4.33333C1.16458 4.33333 0.778375 4.19515 0.466375 3.91878C0.155459 3.64144 0 3.29815 0 2.88889C0 2.47963 0.155459 2.13633 0.466375 1.859C0.778375 1.58263 1.16458 1.44444 1.625 1.44444H8.125C8.125 1.03519 8.281 0.691889 8.593 0.414555C8.90392 0.138185 9.28958 0 9.75 0H16.25C16.7104 0 17.0966 0.138185 17.4086 0.414555C17.7195 0.691889 17.875 1.03519 17.875 1.44444H24.375C24.8354 1.44444 25.2211 1.58263 25.532 1.859C25.844 2.13633 26 2.47963 26 2.88889C26 3.29815 25.844 3.64144 25.532 3.91878C25.2211 4.19515 24.8354 4.33333 24.375 4.33333V23.1111C24.375 23.9056 24.057 24.5859 23.4211 25.1521C22.7841 25.7174 22.0187 26 21.125 26H4.875ZM4.875 4.33333V23.1111H21.125V4.33333H4.875ZM8.125 18.7778C8.125 19.187 8.281 19.5299 8.593 19.8062C8.90392 20.0836 9.28958 20.2222 9.75 20.2222C10.2104 20.2222 10.5966 20.0836 10.9086 19.8062C11.2195 19.5299 11.375 19.187 11.375 18.7778V8.66667C11.375 8.25741 11.2195 7.91411 10.9086 7.63678C10.5966 7.36041 10.2104 7.22222 9.75 7.22222C9.28958 7.22222 8.90392 7.36041 8.593 7.63678C8.281 7.91411 8.125 8.25741 8.125 8.66667V18.7778ZM14.625 18.7778C14.625 19.187 14.781 19.5299 15.093 19.8062C15.4039 20.0836 15.7896 20.2222 16.25 20.2222C16.7104 20.2222 17.0966 20.0836 17.4086 19.8062C17.7195 19.5299 17.875 19.187 17.875 18.7778V8.66667C17.875 8.25741 17.7195 7.91411 17.4086 7.63678C17.0966 7.36041 16.7104 7.22222 16.25 7.22222C15.7896 7.22222 15.4039 7.36041 15.093 7.63678C14.781 7.91411 14.625 8.25741 14.625 8.66667V18.7778Z" fill="#878787"/>
</svg>
