<svg width="26" height="26" viewBox="0 0 26 26" fill="none" xmlns="http://www.w3.org/2000/svg">
<path d="M17.3333 13C17.3333 11.4111 16.219 10.1111 14.8571 10.1111C13.4952 10.1111 12.381 11.4111 12.381 13C12.381 14.5889 13.4952 15.8889 14.8571 15.8889C16.219 15.8889 17.3333 14.5889 17.3333 13ZM14.8571 0C8.70381 0 3.71429 5.82111 3.71429 13H0L4.95238 18.7778L9.90476 13H6.19048C6.19048 7.41 10.0657 2.88889 14.8571 2.88889C19.6486 2.88889 23.5238 7.41 23.5238 13C23.5238 18.59 19.6486 23.1111 14.8571 23.1111C12.9876 23.1111 11.2543 22.4033 9.83048 21.2333L8.07238 23.3133C9.95429 24.9889 12.3067 26 14.8571 26C21.0105 26 26 20.1789 26 13C26 5.82111 21.0105 0 14.8571 0Z" fill="#878787"/>
</svg>
